
<svg xmlns="http://www.w3.org/2000/svg" aria-hidden="true" style="position:absolute;width:0;height:0;overflow:hidden">
  <defs>

  <symbol id="icon-logo" viewBox="0 0 40 40">
  <path fill="#161616" d="M32 0H8a8 8 0 0 0-8 8v24a8 8 0 0 0 8 8h24a8 8 0 0 0 8-8V8a8 8 0 0 0-8-8Z"/>
  <path fill="#fff" d="M16.664 28.784c.306-1.59.566-3.263.934-4.936.18-.876-.04-1.25-1.019-1.183-.979.067-2.07.034-3.112 0-1.04-.033-1.227-.557-.628-1.305 2.954-3.647 5.941-7.25 8.918-10.842.333-.407.718-.697 1.267-.39.549.307.436.686.345 1.143-.328 1.673-.6 3.347-.962 4.986-.186.848.057 1.15.94 1.116a26.444 26.444 0 0 1 2.659 0c.503 0 1.166-.262 1.426.424.26.686-.289.976-.566 1.383a381.508 381.508 0 0 1-3.44 4.177c-1.701 2.03-3.39 4.053-5.064 6.068-.328.396-.696.714-1.256.513-.56-.2-.442-.675-.442-1.154Z"/>
</symbol>

<symbol id="icon-plus" viewBox="0 0 28 28">
  <path fill="#161616" d="M22 0H6a6 6 0 0 0-6 6v16a6 6 0 0 0 6 6h16a6 6 0 0 0 6-6V6a6 6 0 0 0-6-6Z"/>
  <path stroke="#fff" stroke-linecap="round" stroke-linejoin="round" d="M14 9.917v8.166M9.916 14h8.167"/>
</symbol>

<symbol id="icon-plus-min" viewBox="-2 -3 28 28">
  <path fill="none" stroke="currentColor" stroke-linecap="round" stroke-linejoin="round" stroke-width="1.8" d="M10 4.167v11.666M4.167 10h11.666"/>
</symbol>

 <symbol id="icon-menu" viewBox="0 0 32 32">
  <path stroke-linecap="round" stroke-linejoin="round" stroke-width="2.5" d="M4 16h24M4 8h24M4 24h24"/>
</symbol>

     <symbol id="icon-filter" viewBox="0 0 16 16">
      <path fill="none" stroke="currentColor" stroke-linecap="round" stroke-linejoin="round" stroke-width="1.5" d="M14.667 2H1.334l5.333 6.307v4.36L9.334 14V8.307L14.667 2z"/>
    </symbol>

<symbol id="icon-help" viewBox="-2 -2 20 20" width="20" height="20" preserveAspectRatio="xMidYMid meet">
  <path fill="none" stroke="currentColor" stroke-linejoin="round" stroke-linecap="round" stroke-miterlimit="4" stroke-width="1.44" d="M8 14.666c3.682 0 6.666-2.985 6.666-6.666s-2.985-6.666-6.666-6.666v0c-3.682 0-6.666 2.985-6.666 6.666s2.985 6.666 6.666 6.666v0z" />
  <path fill="none" stroke="currentColor" stroke-linejoin="round" stroke-linecap="round" stroke-miterlimit="4" stroke-width="1.44" d="M6.060 6c0.282-0.785 1.020-1.336 1.886-1.336 1.105 0 2 0.895 2 2 0 0.001 0 0.001 0 0.002v-0c0 1.334-2 2-2 2M8 11.334h0.010" />
</symbol>

  <symbol id="icon-bell" viewBox="0 0 16 16">
      <path fill="none" stroke="currentColor" stroke-linecap="round" stroke-linejoin="round" stroke-width="1.5" d="M6.236 14c.47.415 1.088.667 1.764.667s1.294-.252 1.764-.667M12 5.333a4.003 4.003 0 0 0-4-4 4.001 4.001 0 0 0-4 4c0 2.06-.52 3.471-1.1 4.404-.49.787-.735 1.18-.726 1.29.01.121.036.168.134.241.088.066.487.066 1.285.066h8.815c.797 0 1.196 0 1.285-.066.098-.073.124-.119.134-.241.009-.11-.236-.503-.726-1.29-.581-.933-1.1-2.343-1.1-4.404z"/>
    </symbol>

    <symbol id="icon-arrow-btn" viewBox="0 0 16 16">
      <path fill='none' stroke='currentColor' stroke-linecap="round" stroke-linejoin="round" stroke-width="1.3" d="M2.225 4.667a6.667 6.667 0 1 1 0 6.668" />
      <path fill='none' stroke='currentColor' stroke-linecap="round" stroke-linejoin="round" stroke-width="1.3" d="M8 10.667 10.667 8 8 5.333M1.333 8h9.333"/>
    </symbol>

       <symbol id="icon-pencil-btn" viewBox="0 0 16 16">
      <path fill="none" stroke="currentColor" stroke-linecap="round" stroke-linejoin="round" stroke-width="1.3" d="m1.667 14.333 3.7-1.423c.237-.091.355-.136.466-.196.098-.053.192-.114.28-.182.099-.077.189-.167.368-.346l7.52-7.52a1.887 1.887 0 0 0-2.667-2.667l-7.52 7.52c-.179.179-.269.269-.346.368a2.066 2.066 0 0 0-.182.28 4.246 4.246 0 0 0-.196.466l-1.423 3.7zm0 0 1.372-3.567c.098-.255.147-.383.231-.441a.339.339 0 0 1 .253-.054c.101.019.197.116.391.309l1.506 1.506c.193.193.29.29.309.391a.334.334 0 0 1-.054.253c-.058.084-.186.133-.441.232l-3.567 1.372z"/>
    </symbol>

     <symbol id="icon-trash-btn" viewBox="0 0 16 16">
      <path fill="none" stroke="currentColor" stroke-linecap="round" stroke-linejoin="round" stroke-width="1.3" d="M6 2h4M2 4h12M3.333 4l.401 6.009c.074 1.116.112 1.673.294 2.122a2.998 2.998 0 0 0 1.836 1.717C6.323 14 6.882 14 8 14v0c1.118 0 1.677 0 2.136-.152a3 3 0 0 0 1.836-1.717c.182-.448.219-1.006.294-2.122L12.667 4"/>
    </symbol>

        <symbol id="icon-logout-btn" viewBox="0 0 16 16">
      <path fill="none" stroke="currentColor" stroke-linecap="round" stroke-linejoin="round" stroke-width=".75" d="M5.933 5.04c.207-2.4 1.44-3.38 4.14-3.38h.087c2.98 0 4.173 1.193 4.173 4.173v4.347c0 2.98-1.193 4.173-4.173 4.173h-.087c-2.68 0-3.913-.967-4.133-3.327M1.333 8H9.92"/>
      <path fill="none" stroke="currentColor" stroke-linecap="round" stroke-linejoin="round" stroke-width=".75" d="M8.433 5.767 10.666 8l-2.233 2.233"/>
    </symbol>
     <symbol id="icon-project-1" viewBox="0 0 16 16">
      <path fill="none" stroke-width="1.333" d="M2.198 3.489a1.732 1.732 0 0 1 1.291-1.291 3.702 3.702 0 0 1 1.688 0c.641.15 1.141.651 1.291 1.291.13.555.13 1.133 0 1.688a1.732 1.732 0 0 1-1.291 1.291c-.555.13-1.133.13-1.688 0a1.732 1.732 0 0 1-1.291-1.291 3.702 3.702 0 0 1 0-1.688zM2.198 10.822a1.732 1.732 0 0 1 1.291-1.291 3.702 3.702 0 0 1 1.688 0 1.73 1.73 0 0 1 1.291 1.291c.13.555.13 1.133 0 1.688a1.732 1.732 0 0 1-1.291 1.291c-.555.13-1.133.13-1.688 0a1.73 1.73 0 0 1-1.291-1.291 3.702 3.702 0 0 1 0-1.688zM9.531 3.489a1.73 1.73 0 0 1 1.291-1.291 3.702 3.702 0 0 1 1.688 0c.641.15 1.141.651 1.291 1.291.13.555.13 1.133 0 1.688a1.73 1.73 0 0 1-1.291 1.291c-.555.13-1.133.13-1.688 0a1.732 1.732 0 0 1-1.291-1.291 3.702 3.702 0 0 1 0-1.688zM9.531 10.822a1.73 1.73 0 0 1 1.291-1.291 3.702 3.702 0 0 1 1.688 0 1.73 1.73 0 0 1 1.291 1.291c.13.555.13 1.133 0 1.688a1.73 1.73 0 0 1-1.291 1.291c-.555.13-1.133.13-1.688 0a1.73 1.73 0 0 1-1.291-1.291 3.702 3.702 0 0 1 0-1.688z"/>
    </symbol>

    <symbol id="icon-star-2" viewBox="0 0 16 16">
      <path fill="none" stroke-linecap="round" stroke-linejoin="round" stroke-width="1.333" d="M8 1.333 9.341 4.82c.188.489.282.733.428.939.13.182.289.341.471.471.206.146.45.24.939.428l3.487 1.341-3.487 1.341c-.489.188-.733.282-.939.428-.182.13-.341.289-.471.471-.146.206-.24.45-.428.939L8 14.665l-1.341-3.487c-.188-.489-.282-.733-.428-.939a2.025 2.025 0 0 0-.471-.471c-.206-.146-.45-.24-.939-.428L1.334 7.999l3.487-1.341c.489-.188.733-.282.939-.428.182-.13.341-.289.471-.471.146-.206.24-.45.428-.939L8 1.333z" />
    </symbol>

     <symbol id="icon-loading-3" viewBox="0 0 16 16">
      <path fill="none" stroke="currentColor" stroke-linecap="round" stroke-linejoin="round" stroke-width="1.333" d="M2.227 11.333a3.182 3.182 0 0 1 .972-4.226l.001-.001a3.186 3.186 0 0 1 3.656.063l2.288 1.664a3.186 3.186 0 0 0 3.656.063l.002-.002a3.18 3.18 0 0 0 .972-4.226m-2.439 9.105a3.182 3.182 0 0 1-4.226-.972l-.001-.002a3.186 3.186 0 0 1 .063-3.656l1.664-2.288a3.186 3.186 0 0 0 .063-3.656l-.003-.001a3.182 3.182 0 0 0-4.226-.971m8.045 1.059c2.604 2.604 2.604 6.824 0 9.428s-6.824 2.604-9.428 0C.682 10.11.682 5.89 3.286 3.286s6.824-2.604 9.428 0z"/>
    </symbol>

    <symbol id="icon-puzzle-piece-4" viewBox="0 0 16 16">
      <path fill="none" stroke="currentColor" stroke-linecap="round" stroke-linejoin="round" stroke-width="1.333" d="m8 1.333 2.4 2.4C12-.467 16.467 4 12.267 5.6l2.4 2.4-2.4 2.4c-1.6-4.2-6.067.267-1.867 1.867l-2.4 2.4-2.4-2.4C4 16.467-.467 12 3.733 10.4L1.333 8l2.4-2.4C5.333 9.8 9.8 5.333 5.6 3.733l2.4-2.4z"/>
    </symbol>

    <symbol id="icon-container-5" viewBox="0 0 16 16">
      <path fill="none" stroke="currentColor" stroke-linecap="round" stroke-linejoin="round" stroke-width="1.333" d="M13.667 4.852 8 8m0 0L2.333 4.852M8 8v6.333m6-3.627V5.295c0-.228 0-.343-.034-.445a.665.665 0 0 0-.143-.243c-.073-.079-.173-.134-.372-.245L8.518 1.621c-.189-.105-.284-.158-.384-.178a.677.677 0 0 0-.269 0c-.1.021-.195.073-.384.178L2.548 4.362c-.2.111-.3.166-.372.245a.68.68 0 0 0-.143.243c-.034.102-.034.216-.034.445v5.411c0 .228 0 .343.034.444.03.09.078.173.143.243.073.079.173.134.372.245l4.933 2.741c.189.105.284.158.384.178.089.018.18.018.269 0 .1-.021.195-.073.384-.178l4.933-2.741c.2-.111.299-.166.372-.245a.68.68 0 0 0 .143-.243c.034-.102.034-.216.034-.444z"/>
    </symbol>

     <symbol id="icon-lightning-6" viewBox="0 0 16 16">
      <path fill="none" stroke="currentColor" stroke-linecap="round" stroke-linejoin="round" stroke-width="1.333" d="M9.5 1.333H5.663c-.12 0-.179 0-.232.018a.331.331 0 0 0-.125.077.732.732 0 0 0-.12.2l-2.8 5.6c-.128.256-.192.383-.176.487a.33.33 0 0 0 .139.224c.086.06.229.06.515.06h4.137l-2 6.667 8.129-8.43c.274-.284.411-.427.419-.548a.334.334 0 0 0-.118-.277c-.093-.079-.291-.079-.686-.079H8l1.5-4z" />
    </symbol>

    <symbol id="icon-colors-7" viewBox="0 0 16 16">
      <path fill="none" stroke="currentColor" stroke-linecap="round" stroke-linejoin="round" stroke-width="1.333" d="M8 13.648a4 4 0 1 0 3.72-6.842m-7.44.001a4.002 4.002 0 0 0 1.053 7.86 4 4 0 0 0 3.72-5.473M12 5.333a4 4 0 1 1-8 0 4 4 0 0 1 8 0z"/>
    </symbol>

    <symbol id="icon-hexagon-8" viewBox="0 0 16 16">
      <path fill="none" stroke="currentColor" stroke-linecap="round" stroke-linejoin="round" stroke-width="1.333" d="M7.482 1.621c.189-.105.284-.158.384-.178a.677.677 0 0 1 .269 0c.1.021.195.073.384.178l4.933 2.741c.2.111.299.166.372.245a.68.68 0 0 1 .143.243c.034.102.034.216.034.445v5.411c0 .228 0 .343-.034.444a.665.665 0 0 1-.143.243c-.073.079-.173.134-.372.245l-4.933 2.741c-.189.105-.284.158-.384.178a.677.677 0 0 1-.269 0c-.1-.021-.195-.073-.384-.178l-4.933-2.741c-.2-.111-.3-.166-.372-.245a.68.68 0 0 1-.143-.243C2 11.048 2 10.934 2 10.706V5.295c0-.228 0-.343.034-.444a.665.665 0 0 1 .143-.243c.073-.079.173-.134.372-.245l4.933-2.741z"/>
    </symbol>
  </defs>
</svg>


