<svg xmlns="http://www.w3.org/2000/svg" version="1.1" xmlns:xlink="http://www.w3.org/1999/xlink" xmlns:svgjs="http://svgjs.dev/svgjs" width="48" height="48"><svg width="48" height="48" viewBox="0 0 48 48" fill="none" xmlns="http://www.w3.org/2000/svg">
<path d="M40 0H8C3.58172 0 0 3.58172 0 8V40C0 44.4183 3.58172 48 8 48H40C44.4183 48 48 44.4183 48 40V8C48 3.58172 44.4183 0 40 0Z" fill="#161616"></path>
<path d="M19.9971 34.5403C20.3638 32.6329 20.6761 30.6251 21.1175 28.6174C21.3347 27.5666 21.0699 27.1182 19.8953 27.1985C18.7207 27.2788 17.4102 27.2387 16.1609 27.1985C14.9116 27.1584 14.6875 26.5293 15.4072 25.6325C18.9515 21.2555 22.5365 16.9321 26.108 12.6221C26.5086 12.1335 26.9703 11.7855 27.6289 12.1536C28.2875 12.5217 28.1517 12.9768 28.0431 13.5256C27.6492 15.5334 27.3233 17.5411 26.8888 19.5087C26.6647 20.526 26.9567 20.8874 28.0159 20.8473C29.0789 20.7937 30.1441 20.7937 31.2071 20.8473C31.8114 20.8473 32.6058 20.5327 32.9181 21.3559C33.2305 22.1791 32.5718 22.5271 32.2391 23.0157C30.8812 24.6888 29.5051 26.3597 28.111 28.0284C26.0695 30.4645 24.0439 32.8917 22.0341 35.3099C21.6403 35.7851 21.1989 36.1666 20.5267 35.9256C19.8545 35.6847 19.9971 35.1158 19.9971 34.5403Z" fill="white"></path>
</svg><style>@media (prefers-color-scheme: light) { :root { filter: none; } }
@media (prefers-color-scheme: dark) { :root { filter: none; } }
</style></svg>