<svg
  xmlns="http://www.w3.org/2000/svg"
  aria-hidden="true"
  style="position: absolute; width: 0; height: 0; overflow: hidden">
  <defs>
    <symbol
      id="taskpro-logo"
      viewBox="0 0 40 40">
      <path
        d="M32 0H8a8 8 0 0 0-8 8v24a8 8 0 0 0 8 8h24a8 8 0 0 0 8-8V8a8 8 0 0 0-8-8Z" />
      <path
        fill="currentColor"
        d="M16.664 28.784c.306-1.59.566-3.263.934-4.936.18-.876-.04-1.25-1.019-1.183-.979.067-2.07.034-3.112 0-1.04-.033-1.227-.557-.628-1.305 2.954-3.647 5.941-7.25 8.918-10.842.333-.407.718-.697 1.267-.39.549.307.436.686.345 1.143-.328 1.673-.6 3.347-.962 4.986-.186.848.057 1.15.94 1.116a26.444 26.444 0 0 1 2.659 0c.503 0 1.166-.262 1.426.424.26.686-.289.976-.566 1.383a381.508 381.508 0 0 1-3.44 4.177c-1.701 2.03-3.39 4.053-5.064 6.068-.328.396-.696.714-1.256.513-.56-.2-.442-.675-.442-1.154Z" />
    </symbol>
    <symbol
      xmlns="http://www.w3.org/2000/svg"
      id="google"
      fill="currentColor"
      stroke="currentColor"
      stroke-width="0"
      viewBox="0 0 48 48">
      <path
        fill="#FFC107"
        stroke="none"
        d="M43.611 20.083H42V20H24v8h11.303c-1.649 4.657-6.08 8-11.303 8-6.627 0-12-5.373-12-12s5.373-12 12-12c3.059 0 5.842 1.154 7.961 3.039l5.657-5.657C34.046 6.053 29.268 4 24 4 12.955 4 4 12.955 4 24s8.955 20 20 20 20-8.955 20-20c0-1.341-.138-2.65-.389-3.917z" />
      <path
        fill="#FF3D00"
        stroke="none"
        d="m6.306 14.691 6.571 4.819C14.655 15.108 18.961 12 24 12c3.059 0 5.842 1.154 7.961 3.039l5.657-5.657C34.046 6.053 29.268 4 24 4 16.318 4 9.656 8.337 6.306 14.691z" />
      <path
        fill="#4CAF50"
        stroke="none"
        d="M24 44c5.166 0 9.86-1.977 13.409-5.192l-6.19-5.238A11.91 11.91 0 0 1 24 36c-5.202 0-9.619-3.317-11.283-7.946l-6.522 5.025C9.505 39.556 16.227 44 24 44z" />
      <path
        fill="#1976D2"
        stroke="none"
        d="M43.611 20.083H42V20H24v8h11.303a12.04 12.04 0 0 1-4.087 5.571l.003-.002 6.19 5.238C36.971 39.205 44 34 44 24c0-1.341-.138-2.65-.389-3.917z" />
    </symbol>
    <symbol
      viewBox="0 0 256 256"
      id="microsoft"
      xmlns="http://www.w3.org/2000/svg">
      <path
        fill="#F1511B"
        d="M121.666 121.666H0V0h121.666z" />
      <path
        fill="#80CC28"
        d="M256 121.666H134.335V0H256z" />
      <path
        fill="#00ADEF"
        d="M121.663 256.002H0V134.336h121.663z" />
      <path
        fill="#FBBC09"
        d="M256 256.002H134.335V134.336H256z" />
    </symbol>
  </defs>
</svg>
